<?xml version="1.0" encoding="UTF-8"?>
<!DOCTYPE svg PUBLIC "-//W3C//DTD SVG 1.1//EN" "http://www.w3.org/Graphics/SVG/1.1/DTD/svg11.dtd">
<!-- Creator: CorelDRAW X7 -->
<svg xmlns="http://www.w3.org/2000/svg" xml:space="preserve" width="8.26772in" height="8.26666in" version="1.1" style="shape-rendering:geometricPrecision; text-rendering:geometricPrecision; image-rendering:optimizeQuality; fill-rule:evenodd; clip-rule:evenodd"
viewBox="0 0 8268 8267"
 xmlns:xlink="http://www.w3.org/1999/xlink">
 <defs>
  <style type="text/css">
   <![CDATA[
    .fil3 {fill:none}
    .fil2 {fill:#FEFEFE}
    .fil0 {fill:#373435}
    .fil5 {fill:#D54E3F}
    .fil4 {fill:#BB8961}
    .fil1 {fill:#373435;fill-rule:nonzero}
   ]]>
  </style>
 </defs>
 <g id="Layer_x0020_1">
  <metadata id="CorelCorpID_0Corel-Layer"/>
  <g id="_1835957414912">
   <g>
    <path class="fil0" d="M1880 3494c433,-1149 1211,-1990 2351,-2353 1048,327 1819,1140 2296,2381 -56,40 -57,126 -71,212 -5,26 -13,53 -14,81 -14,461 -18,1178 -349,1744 -161,276 -218,589 -387,836 -961,334 -1950,380 -2978,5 -570,-923 -842,-1893 -848,-2906z"/>
    <path id="1" class="fil1" d="M4232 1138l-2 6 2 0 -105 35 -104 38 -102 41 -99 44 -97 46 -95 49 -94 52 -91 54 -88 57 -87 59 -85 62 -83 64 -80 66 -79 69 -76 72 -74 73 -72 76 -71 78 -68 81 -66 83 -64 84 -62 87 -60 89 -57 92 -56 93 -54 95 -52 97 -49 100 -48 101 -46 103 -43 105 -42 106 -6 -2 42 -107 44 -105 45 -103 48 -101 50 -100 51 -97 54 -95 56 -94 58 -91 60 -89 62 -87 64 -85 66 -83 69 -81 70 -78 72 -76 75 -74 76 -71 79 -70 80 -66 83 -64 85 -62 87 -60 89 -56 91 -55 94 -51 95 -49 97 -47 100 -44 102 -41 103 -38 106 -35 2 0zm-2 0l1 -1 1 1 -2 0zm2299 2387l-3 -6 -1 4 -46 -115 -47 -112 -50 -110 -50 -108 -53 -105 -54 -102 -56 -100 -57 -97 -60 -95 -60 -92 -63 -89 -64 -87 -66 -84 -68 -81 -69 -79 -71 -76 -73 -74 -74 -70 -76 -68 -78 -66 -79 -62 -81 -60 -83 -58 -84 -54 -86 -52 -87 -49 -89 -46 -91 -43 -93 -41 -94 -37 -95 -35 -98 -32 2 -6 98 32 96 35 94 38 93 40 90 44 90 46 88 49 86 52 84 54 83 57 81 60 79 63 78 66 76 68 75 71 72 73 72 77 69 79 68 81 66 84 64 87 63 90 61 92 59 95 58 97 56 100 54 102 52 105 51 108 49 110 48 113 45 115 -1 4zm1 -4l1 2 -2 2 1 -4zm-71 214l-7 -1 0 0 2 -8 1 -8 1 -8 1 -8 1 -8 2 -8 1 -8 1 -8 1 -8 1 -7 1 -8 2 -8 1 -7 2 -7 1 -8 2 -7 2 -7 2 -7 2 -6 2 -7 2 -6 3 -7 3 -6 3 -6 3 -5 4 -6 3 -5 4 -5 5 -5 4 -4 5 -5 6 -4 3 6 -5 3 -4 4 -5 5 -4 4 -4 5 -3 5 -3 5 -4 5 -3 6 -2 6 -3 6 -2 6 -2 7 -2 6 -2 7 -2 7 -2 7 -1 7 -2 7 -1 7 -1 8 -1 8 -2 7 -1 8 -1 8 -1 8 -1 8 -1 8 -2 8 -1 8 -1 8 -1 8 0 0zm-14 80l-6 0 0 0 0 -2 0 -3 0 -3 1 -3 0 -2 0 -3 0 -2 1 -3 0 -3 1 -2 0 -3 0 -3 1 -2 0 -3 1 -2 0 -3 1 -2 0 -3 1 -2 0 -3 1 -2 1 -3 0 -2 1 -3 0 -2 1 -3 0 -2 1 -3 0 -2 1 -2 0 -3 0 -2 7 1 -1 2 0 3 -1 2 0 3 -1 2 0 3 -1 2 0 3 -1 2 0 3 -1 2 0 2 -1 3 0 2 -1 3 0 2 -1 3 0 3 -1 2 0 3 -1 2 0 3 0 2 -1 3 0 2 -1 3 0 2 0 3 0 3 0 2 -1 3 0 2 0 0zm-349 1746l-5 -4 0 0 30 -53 28 -54 26 -55 25 -56 23 -56 21 -57 20 -57 18 -57 17 -58 16 -58 14 -58 13 -59 12 -58 11 -58 10 -58 8 -58 8 -57 7 -57 6 -57 6 -56 4 -56 4 -54 4 -54 3 -54 3 -52 2 -51 2 -51 1 -49 2 -48 1 -47 2 -45 1 -44 6 0 -1 44 -1 46 -2 46 -1 48 -2 50 -2 50 -2 51 -3 53 -3 53 -3 54 -4 55 -5 55 -5 57 -7 56 -7 58 -7 57 -9 58 -10 58 -11 58 -12 59 -13 58 -14 58 -16 59 -17 58 -18 57 -20 57 -21 57 -23 57 -25 55 -27 56 -28 54 -30 54 0 0zm-389 837l-2 -6 -2 1 16 -23 15 -24 14 -24 14 -24 13 -25 13 -25 12 -25 12 -25 12 -26 11 -26 12 -26 10 -26 11 -27 11 -27 10 -26 11 -27 10 -27 11 -27 10 -27 11 -28 10 -27 11 -27 11 -27 12 -27 11 -27 12 -27 13 -27 12 -27 14 -26 13 -26 15 -27 15 -26 5 4 -15 25 -14 27 -14 26 -13 26 -13 27 -12 27 -12 26 -11 27 -12 27 -11 27 -11 28 -10 27 -11 27 -11 27 -10 27 -10 27 -11 27 -10 27 -11 26 -11 27 -11 26 -11 27 -11 26 -12 25 -12 26 -12 25 -13 25 -14 25 -13 25 -15 24 -15 23 -15 24 -2 1zm2 -1l-1 1 -1 0 2 -1zm-2984 5l5 -4 -1 -1 96 34 96 31 96 29 95 27 96 24 95 22 95 20 94 17 95 15 94 13 94 10 94 9 93 6 94 4 93 2 93 0 93 -2 92 -5 93 -6 92 -8 92 -11 92 -12 92 -14 91 -16 91 -18 92 -20 91 -21 90 -24 91 -25 90 -27 91 -29 90 -30 2 6 -90 30 -91 29 -90 27 -91 25 -91 24 -91 22 -91 19 -92 18 -91 16 -92 15 -92 12 -92 10 -93 8 -92 7 -93 4 -93 2 -93 0 -93 -2 -94 -4 -94 -6 -94 -8 -94 -11 -94 -13 -95 -15 -95 -17 -95 -20 -95 -22 -95 -24 -96 -26 -96 -30 -96 -31 -97 -34 -1 -1zm1 1l-1 0 0 -1 1 1zm-849 -2910l6 2 1 -1 1 95 3 95 4 94 6 94 8 94 9 93 11 93 12 93 14 93 16 93 17 92 19 92 21 92 22 91 23 91 26 91 27 91 28 90 31 90 32 90 34 90 35 89 37 89 39 89 40 88 42 89 44 88 46 87 47 88 49 87 51 87 52 86 -5 4 -53 -87 -51 -87 -49 -87 -47 -88 -46 -87 -43 -89 -43 -88 -40 -88 -39 -89 -37 -90 -35 -89 -34 -90 -32 -90 -31 -90 -28 -90 -27 -91 -26 -91 -24 -91 -22 -92 -20 -92 -19 -92 -17 -92 -16 -93 -14 -93 -12 -93 -11 -93 -9 -94 -8 -94 -6 -94 -5 -94 -2 -95 -2 -95 0 -1zm0 1l0 0 0 -1 0 1z"/>
   </g>
   <path class="fil2" d="M4209 5091c17,-78 216,-120 294,-238 116,-233 -31,-382 1,-529 662,-263 785,-744 679,-1351 -78,-331 -255,-584 -412,-648 -5,20 -8,39 -12,57 -135,-206 -508,-332 -550,-452 -42,120 -427,246 -562,452 -3,-18 -7,-37 -12,-57 -157,64 -322,317 -400,648 -97,611 16,1108 664,1351 23,176 -127,324 10,539 126,142 271,157 300,228z"/>
   <path class="fil2" d="M2207 3446l215 54c48,12 80,29 96,53 17,23 19,55 9,97 -10,40 -27,67 -52,81 -25,14 -59,16 -101,5l-225 -56 17 -72 207 52c39,10 65,13 77,9 12,-5 21,-15 25,-33 4,-17 1,-30 -9,-40 -10,-9 -33,-18 -70,-28l-207 -51 18 -71zm361 21l-330 -127 36 -93 195 3c23,0 45,1 67,3 21,1 42,4 61,7 -14,-4 -30,-9 -46,-14 -16,-5 -33,-11 -51,-18l-192 -69 24 -64 331 127 -35 90 -207 -2c-15,0 -33,-1 -55,-3 -21,-2 -44,-4 -69,-7 22,7 40,13 57,18 16,5 29,10 40,14l199 72 -25 63zm122 -299l-318 -155 32 -65 318 155 -32 65zm88 -172l-353 -94 37 -68 179 58c29,10 52,17 68,23 17,6 31,11 43,16 -18,-12 -34,-25 -50,-37 -15,-12 -29,-24 -42,-35l-141 -127 36 -65 265 253 -42 76zm107 -184l-290 -203 110 -157 45 32 -67 95 69 49 62 -88 44 31 -61 88 84 59 70 -99 46 33 -112 160zm-58 -516c28,-33 52,-51 73,-54 20,-3 43,7 69,30 20,17 33,34 38,48 5,15 3,31 -6,48 17,-13 32,-19 45,-18 14,2 32,12 55,32 1,1 3,3 6,6 3,3 5,5 6,6 13,11 24,19 33,26 10,6 20,11 29,15l-51 58c-11,-5 -29,-19 -56,-42 -9,-7 -16,-13 -22,-17 -13,-12 -25,-17 -34,-17 -9,0 -19,5 -28,16l-21 23 111 96 -49 56 -267 -233 69 -79zm95 124l12 -14c13,-15 19,-28 18,-39 0,-10 -8,-22 -22,-34 -13,-12 -25,-18 -35,-17 -9,1 -21,9 -34,25l-13 15 74 64zm200 -94l54 -52 7 7c13,13 24,20 34,21 10,1 20,-3 30,-13 8,-8 12,-17 12,-26 0,-10 -4,-19 -12,-28 -12,-12 -36,-14 -73,-7 -2,0 -4,1 -5,1 -20,4 -35,7 -47,8 -12,2 -21,3 -28,3 -17,1 -31,-1 -42,-5 -11,-4 -22,-12 -32,-23 -21,-21 -30,-45 -28,-72 3,-27 16,-52 41,-76 25,-24 50,-37 74,-38 24,0 48,11 70,34l7 7 -53 51 -1 -2c-12,-12 -23,-19 -33,-20 -10,-2 -20,1 -28,9 -8,8 -12,16 -12,25 0,10 4,18 11,26 14,14 43,15 90,4 12,-2 21,-4 28,-6 27,-5 48,-6 64,-3 16,4 30,12 43,26 24,24 35,50 33,76 -3,27 -18,54 -47,81 -26,26 -52,39 -76,39 -24,1 -48,-12 -72,-38 -1,-1 -3,-2 -4,-4 -2,-2 -4,-4 -5,-5zm281 -114l-232 -267 55 -47 232 267 -55 47zm147 -121l-182 -233 -63 49 -36 -45 187 -147 36 46 -64 50 182 233 -60 47zm122 -256l64 -41 -114 -109 50 150zm164 53l-59 -56 -86 56 27 76 -63 41 -109 -352 80 -51 275 243 -65 43zm36 -154l65 -37 5 9c9,16 18,25 27,29 9,4 20,2 33,-5 10,-5 16,-12 18,-22 3,-9 1,-19 -5,-29 -8,-15 -31,-24 -68,-27 -3,0 -4,0 -5,0 -20,-1 -36,-3 -48,-4 -12,-1 -21,-3 -27,-4 -17,-4 -31,-10 -40,-16 -9,-7 -17,-17 -25,-31 -14,-26 -17,-51 -8,-76 9,-26 29,-47 59,-63 31,-17 58,-23 82,-17 23,5 43,22 58,50l5 8 -64 36 -1 -2c-8,-14 -17,-24 -26,-28 -10,-5 -19,-4 -30,2 -9,5 -15,12 -18,21 -2,9 -1,18 4,28 10,17 38,26 86,27 12,1 22,1 28,1 28,2 49,7 63,14 15,7 27,19 36,36 16,30 20,57 11,82 -9,25 -31,47 -66,67 -32,18 -60,24 -83,18 -23,-7 -44,-25 -61,-56 0,-1 -1,-3 -2,-5 -2,-3 -3,-5 -3,-6z"/>
   <path class="fil2" d="M4539 1500l-115 216 28 15c21,11 39,12 54,3 15,-10 34,-37 58,-82 24,-44 35,-75 35,-93 -1,-18 -11,-33 -32,-44l-28 -15zm-41 -82l103 54c40,22 62,48 66,80 4,32 -9,77 -40,135 -31,58 -61,94 -89,108 -29,15 -63,11 -103,-10l-104 -55 167 -312zm92 459l182 -304 62 38 -182 303 -62 -37zm424 -146c34,25 53,48 56,70 4,22 -6,49 -29,81 -11,15 -22,27 -34,36 -12,9 -23,14 -35,16 -11,2 -22,2 -33,-2 -10,-3 -26,-12 -45,-27l-4 -2 -34 -25 -84 115 -62 -45 208 -287 96 70zm-67 20l-58 81 19 14c18,12 31,18 41,16 10,-1 21,-10 32,-26 11,-15 16,-27 15,-36 -1,-10 -9,-20 -24,-31l-25 -18zm63 440c-12,-11 -22,-22 -30,-35 -8,-12 -13,-24 -14,-35 -3,-19 1,-40 12,-62 11,-23 32,-52 64,-88 24,-27 44,-48 61,-61 16,-13 32,-21 47,-25 15,-5 31,-4 48,1 17,6 34,16 50,30 13,11 23,23 31,36 8,12 13,24 14,36 3,19 -1,38 -11,58 -10,21 -29,47 -57,79 -29,34 -52,57 -68,70 -17,14 -33,22 -49,27 -15,4 -31,3 -48,-2 -17,-5 -34,-15 -50,-29zm86 -168c-35,39 -55,67 -61,84 -6,17 -2,31 11,42 13,11 27,13 43,5 15,-7 41,-32 78,-74 32,-37 51,-64 57,-81 5,-16 2,-30 -11,-41 -13,-11 -28,-13 -43,-5 -16,8 -41,31 -74,70zm47 283l259 -241 67 72 -88 175c-10,21 -21,40 -31,58 -11,19 -22,36 -34,53 10,-12 21,-24 33,-36 12,-12 25,-25 39,-38l146 -142 47 50 -259 241 -66 -71 92 -185c7,-13 16,-29 27,-48 11,-18 23,-38 36,-59 -15,16 -28,31 -40,43 -12,12 -22,23 -30,31l-152 147 -46 -50zm215 243l279 -218 118 150 -43 34 -72 -92 -67 52 66 85 -43 33 -66 -84 -81 63 74 96 -45 35 -120 -154zm430 296l-153 95c-16,-18 -29,-33 -40,-46 -10,-13 -19,-26 -26,-37 -11,-18 -19,-35 -24,-50 -4,-15 -5,-28 -4,-40 4,-20 13,-38 30,-55 16,-18 47,-40 90,-68 31,-18 55,-32 74,-39 18,-7 36,-10 52,-10 16,1 31,6 46,17 14,10 28,25 41,46 19,31 26,60 21,86 -5,26 -23,48 -53,67l-5 3 -38 -62 3 -2c17,-11 28,-22 33,-33 4,-11 3,-22 -5,-35 -9,-15 -23,-21 -40,-18 -17,2 -49,18 -96,47 -49,31 -77,54 -86,68 -8,15 -6,32 6,52 3,4 6,8 10,13 3,4 8,9 14,15l67 -42 -22 -35 47 -29 58 92zm-84 253c-7,-14 -12,-29 -15,-43 -3,-15 -2,-27 0,-38 5,-19 17,-37 35,-53 19,-17 49,-36 91,-57 33,-17 60,-28 80,-34 20,-6 38,-8 53,-6 16,1 31,8 44,19 14,12 26,27 36,47 8,15 13,30 15,44 3,15 2,28 -1,39 -4,18 -15,35 -32,50 -16,15 -44,33 -82,52 -39,20 -69,34 -90,39 -20,6 -38,9 -54,7 -16,-2 -31,-9 -45,-20 -14,-11 -25,-27 -35,-46zm142 -124c-46,24 -75,43 -87,56 -12,13 -14,28 -6,43 8,15 20,22 38,21 17,-1 50,-15 100,-40 44,-22 72,-40 83,-53 11,-13 13,-28 5,-43 -8,-15 -21,-22 -38,-21 -18,2 -49,14 -95,37zm305 253c16,41 20,70 14,90 -7,19 -27,35 -59,47 -25,10 -45,13 -61,11 -15,-3 -28,-12 -39,-28 3,22 1,38 -6,49 -7,11 -25,22 -53,33 -2,0 -5,1 -9,2 -3,2 -6,2 -8,3 -15,6 -28,12 -38,17 -10,6 -19,12 -27,18l-28 -72c10,-7 31,-17 64,-30 11,-4 20,-8 26,-10 16,-7 26,-15 31,-23 4,-8 4,-19 -1,-32l-11 -29 -136 52 -27 -69 331 -127 37 98zm-154 26l7 17c7,19 15,30 25,35 10,4 24,3 41,-4 17,-6 27,-14 31,-23 4,-9 2,-23 -5,-42l-7 -18 -92 35zm-89 375c-4,-16 -7,-31 -7,-46 0,-14 3,-27 7,-37 8,-18 23,-33 44,-46 21,-13 54,-27 100,-41 35,-10 63,-17 84,-19 21,-3 38,-1 53,3 15,5 29,14 40,27 12,14 21,31 27,52 5,16 8,32 8,47 -1,14 -3,27 -8,38 -8,17 -21,31 -40,44 -19,12 -49,24 -90,36 -43,13 -74,21 -95,23 -21,3 -40,2 -55,-3 -15,-4 -29,-13 -41,-27 -11,-14 -20,-31 -27,-51zm162 -98c-50,16 -81,29 -95,40 -15,11 -19,25 -14,41 5,17 16,26 34,28 17,1 52,-6 105,-22 48,-15 78,-27 91,-38 14,-11 18,-25 13,-41 -5,-17 -17,-26 -34,-28 -18,-1 -51,6 -100,20z"/>
   <path class="fil3" d="M2491 3785c173,-873 734,-1598 1642,-2072"/>
   <path class="fil3" d="M4331 1730c845,422 1380,1118 1612,2001"/>
   <path class="fil2" d="M2994 6174l73 18 -3 9c-4,17 -4,31 0,40 4,9 13,15 27,18 11,3 20,2 28,-3 8,-5 14,-14 17,-25 4,-16 -7,-38 -32,-66 -2,-1 -3,-3 -4,-3 -13,-15 -24,-26 -32,-35 -7,-9 -13,-17 -17,-22 -9,-15 -15,-28 -17,-39 -2,-11 -2,-24 2,-39 7,-28 23,-49 46,-61 24,-12 53,-14 86,-6 34,9 57,23 71,43 13,20 16,46 8,77l-2 9 -71 -18 1 -2c4,-16 4,-29 0,-38 -4,-10 -12,-16 -23,-19 -11,-2 -20,-1 -28,3 -7,5 -13,13 -15,24 -5,18 10,44 43,77 9,9 15,16 20,21 19,20 31,37 37,52 5,15 6,32 1,50 -8,33 -24,56 -48,68 -23,12 -54,13 -92,4 -36,-9 -61,-24 -73,-44 -13,-20 -15,-47 -7,-81 1,-2 1,-4 2,-6 1,-3 1,-5 2,-6zm261 173l61 -346 187 33 -10 54 -114 -21 -14 83 105 19 -10 53 -105 -19 -18 101 119 21 -10 56 -191 -34zm256 52l37 -350 113 12 27 220c1,7 2,17 2,29 1,12 1,27 1,44 2,-12 5,-24 7,-36 3,-12 7,-24 10,-36l67 -209 117 12 -37 350 -68 -7 29 -239c2,-18 4,-34 6,-48 2,-15 4,-28 6,-39l-107 319 -70 -7 -43 -336c0,22 -1,51 -4,87 0,1 0,2 0,2l-21 240 -72 -8zm509 -90l75 2 -34 -153 -41 151zm105 135l-18 -79 -102 -2 -20 78 -74 -1 106 -350 93 1 92 354 -77 -1zm224 -351c43,-1 73,4 89,17 15,12 24,35 25,70 1,27 -2,47 -10,61 -7,13 -20,23 -38,28 21,3 36,10 44,21 8,10 12,30 13,60 0,2 0,5 0,9 0,4 0,7 0,9 1,16 2,30 4,41 2,12 4,22 8,32l-77 2c-3,-11 -6,-34 -8,-69 0,-12 -1,-21 -1,-28 -1,-17 -5,-30 -11,-36 -6,-7 -17,-11 -31,-10l-30 1 5 145 -74 2 -12 -351 104 -4zm-25 153l18 -1c19,0 33,-4 41,-12 7,-8 10,-21 10,-40 -1,-18 -5,-30 -12,-36 -7,-7 -21,-9 -41,-9l-20 1 4 97zm291 50l75 -7 -53 -148 -22 155zm121 121l-27 -76 -102 11 -10 80 -74 7 62 -360 93 -10 134 340 -76 8zm128 -17l-62 -346 98 -18 98 169c11,19 22,39 31,57 10,19 19,38 26,57 -4,-15 -8,-30 -12,-47 -4,-16 -8,-34 -11,-53l-39 -199 66 -12 62 347 -95 17 -104 -178c-8,-13 -16,-29 -26,-48 -9,-19 -19,-40 -30,-63 6,22 11,41 15,58 3,16 6,30 9,42l40 205 -66 12zm519 -297l40 174c-22,9 -41,17 -57,22 -15,6 -29,10 -42,13 -21,5 -40,7 -55,7 -15,-1 -28,-4 -39,-10 -17,-9 -31,-24 -43,-45 -11,-22 -22,-57 -34,-107 -7,-35 -12,-62 -13,-82 0,-20 2,-37 8,-52 5,-15 16,-28 30,-38 15,-10 33,-18 57,-24 35,-8 65,-5 87,8 23,14 39,38 46,72l2 5 -71 16 -1 -4c-4,-19 -11,-33 -20,-41 -9,-7 -20,-10 -34,-7 -18,5 -28,15 -31,32 -3,17 2,52 14,105 13,56 25,91 36,103 12,13 28,17 50,12 5,-1 10,-3 15,-5 6,-2 12,-5 19,-9l-17 -76 -40 9 -12 -54 105 -24z"/>
   <path class="fil3" d="M2945 6271c796,224 1621,244 2506,2"/>
   <path class="fil2" d="M4196 5901c94,-200 538,-144 805,-306 310,-145 330,-428 334,-655 60,0 111,-16 131,-74 17,-104 -128,-128 -192,-47 -81,71 64,216 -179,405 -111,81 -81,159 -118,196 -44,27 -152,17 -30,-88 114,-84 145,-152 91,-304 -31,135 -118,155 -169,216 -61,88 -44,186 -81,216 -44,44 -101,10 -41,-88 81,-77 159,-175 108,-357 -47,138 -128,192 -172,249 -91,108 -67,189 -91,247 -37,54 -98,10 -50,-81 54,-142 212,-260 104,-456 -20,139 -128,203 -179,284 -37,77 -6,249 -50,283 -44,27 -85,4 -64,-61 10,-128 175,-219 67,-486 -13,162 -189,223 -159,510 -3,54 -43,78 -70,68 0,0 1,0 1,3 -25,-2 -54,-25 -55,-71 30,-285 -147,-348 -161,-508 -106,265 58,358 68,486 22,64 -19,88 -64,59 -43,-32 -14,-204 -49,-283 -51,-80 -159,-144 -181,-282 -106,194 51,314 106,455 46,90 -15,134 -50,80 -25,-58 0,-139 -91,-245 -44,-57 -127,-113 -172,-251 -53,182 27,281 106,359 62,96 5,130 -41,88 -35,-32 -18,-130 -79,-218 -51,-59 -140,-81 -169,-216 -55,154 -25,221 90,304 121,105 13,116 -29,89 -39,-37 -7,-114 -118,-197 -245,-187 -98,-333 -179,-403 -66,-83 -211,-59 -192,47 20,56 71,74 131,74 4,225 22,510 333,653 266,164 707,106 800,306l0 0zm1179 -1089c-22,0 -40,19 -40,41 0,22 18,40 40,40 22,0 41,-18 41,-40 0,-22 -19,-41 -41,-41zm-2354 2c22,0 41,18 41,40 0,22 -19,41 -41,41 -22,0 -40,-19 -40,-41 0,-22 18,-40 40,-40zm1178 724c76,-46 30,-166 51,-223 -2,-115 104,-169 123,-280 -69,39 -132,64 -174,118 -42,-54 -105,-79 -174,-118 26,105 125,159 123,280 21,57 -25,177 51,223z"/>
   <path class="fil4" d="M4211 976c137,193 1033,335 1561,1053 655,576 648,1359 921,1453 -229,97 -59,822 -256,1452 -232,935 -755,1363 -589,1625 -328,-198 -623,228 -1725,211 -729,25 -1301,-375 -1530,-223 151,-211 -412,-759 -598,-1548 -261,-700 -52,-1405 -290,-1533 294,-60 159,-697 1016,-1518 862,-892 1465,-779 1490,-972zm1331 5429c-148,29 -302,88 -449,128 -486,130 -1015,169 -1512,70 -258,-59 -516,-157 -778,-200l-42 -3 -33 0c-56,-223 -186,-418 -292,-619 -119,-213 -220,-437 -294,-668 -41,-152 -98,-309 -127,-461 -64,-333 -50,-675 -89,-1011 -10,-49 -27,-100 -46,-147 147,-170 200,-412 294,-614 236,-503 643,-906 1072,-1247 195,-140 400,-262 622,-346 122,-44 250,-83 360,-149 81,61 209,105 302,147 211,91 417,196 612,314 211,142 390,302 545,506 255,228 432,510 562,822 83,191 140,395 267,564l7 7c-91,172 -76,420 -88,610 -7,274 -34,534 -108,797 -79,307 -199,609 -351,888 -96,185 -238,394 -270,602 -52,0 -110,2 -164,10z"/>
   <path class="fil2" d="M3151 3322c-64,-219 -189,-310 -5,-457 -29,138 39,273 5,457zm27 253c-81,-13 -89,-101 -115,-189 -109,-57 -158,-211 -45,-320 -17,70 82,128 88,286 87,68 35,134 72,223zm-267 -278c53,74 174,153 196,273 61,71 100,152 128,247 -69,-2 -101,-129 -187,-195 -170,-38 -248,-133 -137,-325zm-97 266c62,120 172,85 222,122 91,32 90,143 196,177 61,17 69,137 140,182 -115,21 -202,-109 -304,-145 -195,-10 -335,-130 -254,-336zm-46 275c123,127 172,83 307,107 108,40 164,136 297,157 51,35 98,76 135,113 -131,42 -221,-46 -346,-27 -104,-4 -155,91 -282,47 -118,-51 -165,-204 -111,-397zm30 495c221,105 237,-59 321,-84 73,-22 143,-16 228,20 89,-29 204,-58 353,45 -92,48 -162,76 -292,100 -132,49 -137,270 -360,248 -137,2 -273,-164 -250,-329zm348 444c152,57 186,-80 204,-157 10,-134 93,-186 161,-194 96,-12 119,-75 190,-91 64,-14 135,50 199,11 2,21 4,39 5,58 -135,45 -124,334 -266,455 -144,151 -395,88 -493,-82zm2109 -1460c65,-219 189,-310 5,-457 29,138 -38,273 -5,457zm-27 253c81,-13 90,-101 115,-189 110,-57 159,-211 46,-320 17,70 -83,128 -88,286 -88,68 -35,134 -73,223zm267 -278c-52,74 -174,153 -196,273 -60,71 -99,152 -128,246 69,-1 101,-128 187,-194 171,-38 248,-133 137,-325zm98 266c-63,120 -172,85 -223,122 -91,32 -89,143 -196,177 -60,17 -69,137 -140,182 115,21 203,-109 304,-145 196,-10 336,-130 255,-336zm45 275c-123,127 -172,83 -307,107 -108,40 -163,136 -297,157 -50,35 -98,76 -135,113 132,42 221,-46 346,-27 105,-4 156,91 282,47 118,-51 165,-204 111,-397zm-30 495c-221,104 -236,-59 -321,-85 -72,-21 -143,-15 -227,21 -90,-29 -205,-58 -353,45 91,48 162,76 292,100 132,49 137,270 359,248 137,2 274,-164 250,-329zm-348 444c-151,57 -185,-80 -204,-157 -10,-134 -93,-186 -160,-194 -96,-12 -120,-75 -191,-91 -64,-14 -135,50 -199,11 -2,21 -3,39 -5,58 135,45 125,334 267,455 143,151 395,88 492,-82z"/>
   <path class="fil0" d="M4162 4272c32,0 66,0 99,0 -16,142 43,150 61,181 2,42 -7,84 -25,125 -24,124 40,273 -71,374 -19,4 -35,2 -56,-5 -59,-30 -92,-91 -140,-152 -23,-25 -13,-76 21,-81 23,0 42,24 70,26 -74,-110 -5,-139 -15,-213 -40,-37 -3,-79 -17,-122 103,-38 29,-108 73,-133zm24 132c16,-7 33,-5 55,3 -7,106 -32,225 -3,326 -10,50 20,121 -22,137 -24,10 -68,8 -103,-39 -41,-46 2,-64 22,-58 18,5 35,46 57,41 9,-61 -20,-90 -18,-133 -5,-100 -10,-196 12,-277z"/>
   <path class="fil0" d="M3964 4206c-27,-42 9,-72 38,-45 16,23 37,39 57,17 78,-193 78,-535 46,-750 -46,-212 -12,-460 94,-685 91,230 113,415 57,711 -67,314 66,587 151,800 -259,-70 -370,50 -443,-48zm237 -1296c81,297 -4,518 5,716 10,239 34,395 94,563 -64,-1 -133,-3 -201,-6 46,-130 60,-311 61,-517 20,-244 -27,-509 41,-756z"/>
   <path class="fil5" d="M4553 2326c-106,58 -172,66 -295,85 500,324 780,565 446,1225 108,-125 187,-155 405,-187 -211,-140 -267,-277 -4,-471 -268,-32 -381,-117 -194,-368 -304,74 -412,-3 -358,-284zm-698 0c106,58 172,66 295,85 -499,324 -780,565 -445,1225 -108,-125 -188,-155 -405,-187 211,-140 266,-277 3,-471 268,-32 381,-117 194,-368 304,74 412,-3 358,-284z"/>
   <path class="fil4" d="M3924 2919c-64,59 -120,79 -165,138 -71,100 47,230 130,248 -27,53 -61,144 28,169 -23,98 39,155 91,169 5,22 7,39 -5,49 -106,49 -189,96 -273,111 -186,5 -219,138 -186,209 53,98 162,171 247,223 55,32 140,74 155,-13 -51,-119 27,-135 69,-95 30,10 44,-40 52,-74 27,-152 32,-277 29,-505 -49,-221 -61,-373 -8,-538 11,-39 15,-84 17,-127 -38,-25 -135,-6 -181,36zm574 -15c66,60 114,151 160,226 108,174 -130,273 -177,329 -4,71 23,136 -17,219 101,59 208,110 321,164 86,34 109,72 69,158 -58,95 -135,161 -231,205 -102,50 -201,13 -237,-90 -40,-160 -130,-288 -113,-567 63,-206 48,-373 34,-547 0,-38 -13,-81 -15,-123 37,-25 175,5 206,26z"/>
  </g>
 </g>
</svg>
